<?xml version="1.0" encoding="utf-8"?>
<svg version="1.1" xmlns="http://www.w3.org/2000/svg" xmlns:xlink="http://www.w3.org/1999/xlink" x="0px" y="0px"
	 viewBox="0 0 197.1 330" style="enable-background:new 0 0 197.1 330;" xml:space="preserve">
<path fill="#B8B8B8" class="st0" d="M194.5,159.1L38,2.6C36.3,0.9,34,0,31.6,0s-4.7,0.9-6.4,2.6L2.6,25.2c-1.7,1.7-2.6,4-2.6,6.4s0.9,4.7,2.6,6.4
	l127.5,127.5L3.6,291.9c-3.5,3.5-3.5,9.2,0,12.7l22.6,22.7c1.7,1.7,4,2.6,6.4,2.7c0,0,0,0,0,0c2.4,0,4.7-0.9,6.4-2.6l155.5-155.5
	C198,168.3,198,162.7,194.5,159.1z"/>
</svg>
