<?xml version="1.0" encoding="utf-8"?>
<!DOCTYPE svg PUBLIC "-//W3C//DTD SVG 1.1//EN" "http://www.w3.org/Graphics/SVG/1.1/DTD/svg11.dtd">
<svg version="1.1" id="comment" xmlns="http://www.w3.org/2000/svg" xmlns:xlink="http://www.w3.org/1999/xlink" x="0px" y="0px"
	 width="475px" height="366.8px" viewBox="-68 213.2 475 366.8" style="enable-background:new -68 213.2 475 366.8;"
	 xml:space="preserve">
<g>
	<path fill="#b8b8b8" d="M293.5,213.2h-248C-17.1,213.2-68,264.1-68,326.7V580l123.5-62.8h238c62.6,0,113.5-50.9,113.5-113.5v-77
		C407,264.1,356.1,213.2,293.5,213.2z M72.2,397.1c-15.4,0-27.9-12.5-27.9-27.9s12.5-27.9,27.9-27.9s27.9,12.5,27.9,27.9
		S87.6,397.1,72.2,397.1z M169.3,397.1c-15.4,0-27.9-12.5-27.9-27.9s12.5-27.9,27.9-27.9c15.4,0,27.9,12.5,27.9,27.9
		S184.7,397.1,169.3,397.1z M266.8,397.1c-15.4,0-27.9-12.5-27.9-27.9s12.5-27.9,27.9-27.9s27.9,12.5,27.9,27.9
		S282.2,397.1,266.8,397.1z"/>
</g>
</svg>
