<?xml version="1.0" encoding="utf-8"?>
<!DOCTYPE svg PUBLIC "-//W3C//DTD SVG 1.1//EN" "http://www.w3.org/Graphics/SVG/1.1/DTD/svg11.dtd">
<svg version="1.1" id="Layer_1" xmlns="http://www.w3.org/2000/svg" xmlns:xlink="http://www.w3.org/1999/xlink" x="0px" y="0px"
	 width="324.6px" height="557.2px" viewBox="0 0 324.6 557.2" style="enable-background:new 0 0 324.6 557.2;" xml:space="preserve"
	>
<path fill="#b8b8b8" d="M205.3,396.7c4.4-3.8,9.2-7.3,14.3-11.1c13.4-10.1,28.7-21.4,39.2-38.3c0.9-1.4,1.7-2.8,2.6-4.4
	c0.1-0.2,0.2-0.3,0.3-0.5c2.8-5.2,5-10.6,6.7-16.5c-86.3-9.9-165.1-4.3-210.2,0.9c6.6,17.7,18.3,31.5,28.7,43.8
	c4.1,4.8,8,9.4,11.4,14c4.7,6.3,8.3,12.8,10.7,19.3c0.3,0.7,0.5,1.4,0.7,2l0.1,0.3c0.1,0.3,0.2,0.6,0.3,0.9c1,3.4,1.8,6.8,2.2,10.1
	c24.2,6.2,48.5,9,72.2,8.6c1.1-3,2.4-5.9,3.9-8.8l0.3-0.6c0.2-0.4,0.4-0.7,0.6-1l0.1-0.2c0.4-0.6,1-1.7,1.9-2.9
	C194.8,406.8,199.5,401.6,205.3,396.7z"/>
<g>
	<path fill="#b8b8b8" d="M204.8,557.2c-2.3,0-5-0.1-8.2-0.2c-3.9-0.1-8.2-0.3-13-0.6c-0.1,0-0.1,0-0.2,0c-33.8-2.4-66.5-6.1-99.8-11.3
		c-0.1,0-0.2,0-0.2,0c-5.2-0.9-9.2-1.6-12.8-2.3c-13.3-2.6-17.7-4.2-21.2-6.3c-0.7-0.4-1.5-0.8-2.3-1.3c-4.8-2.6-12-6.6-17.8-13.3
		c-8.7-10.1-11.3-22.7-7.1-35.6c5.8-18.2,30.2-52.8,35.1-59.5c0.8-1.1,1.7-2.1,2.7-3.1c0-0.2-0.1-0.5-0.2-1l-0.1-0.2
		c-0.1-0.2-0.1-0.4-0.2-0.6c-0.4-1.2-1.4-3.3-3.5-6.1c-2.5-3.3-5.6-7.1-9.3-11.4c-12.5-14.7-29.5-34.9-39.2-63.1
		c-1.6-4.6-2.9-9.3-4-14c-3.1-13.6-4.2-28-3.1-42.8c2-28.7,14.2-58.1,28.3-92.2C48.5,144.6,70.9,90.5,74.9,18.9
		c0.3-5.5,2.9-10.6,7.1-14.2c4.2-3.6,9.7-5.2,15.2-4.6l97.7,11.1l97.7,11.1c5.5,0.6,10.4,3.5,13.7,7.9c3.3,4.4,4.6,10,3.7,15.4
		c-12.2,70.7-2.5,128.5,6.1,179.4c6.1,36.3,11.4,67.7,6.9,96.2c-0.2,1.5-0.5,3-0.8,4.4c-2.8,15.1-7.8,29.3-14.8,42.2
		c-0.1,0.2-0.2,0.4-0.3,0.6c-1.3,2.3-2.5,4.5-3.8,6.6c-15.7,25.3-36.8,41.1-52.3,52.6c-4.6,3.4-8.5,6.4-11.6,9
		c-2.1,1.8-3.7,3.5-4.7,5c0,0.1-0.1,0.1-0.1,0.2c-0.1,0.1-0.1,0.2-0.2,0.3l-0.1,0.3c-0.2,0.4-0.3,0.7-0.4,0.8
		c0.8,1.1,1.4,2.3,1.9,3.6c3.2,7.7,19.2,46.8,20.8,65.9c1.1,13.5-4.2,25.3-14.9,33.1c-7.2,5.2-15.1,7.5-20.4,9
		c-0.9,0.2-1.7,0.5-2.4,0.7C215.8,556.6,212.3,557.2,204.8,557.2z M186.2,516.4c4.3,0.3,8.3,0.5,11.8,0.6c6,0.2,8.8,0.1,10,0.1
		c0.8-0.2,1.5-0.5,2.3-0.7c1.6-0.5,4.3-1.2,6.2-2c-1.6-10.4-10.5-34.8-16.9-50.2c-5.3-8.5-9.8-24-0.4-41.1l0.3-0.6
		c0.1-0.2,0.2-0.4,0.4-0.6l0.1-0.2c0.3-0.6,0.8-1.4,1.5-2.3c3.1-4.6,7.1-9,12-13.2c4.1-3.5,8.7-7,13.6-10.6
		c14.3-10.7,30.6-22.9,42.3-41.8c1-1.6,2-3.3,2.9-5.1c0.1-0.1,0.2-0.3,0.2-0.4c4.9-9.2,8.3-19.1,10.4-30.1c0,0,0-0.1,0-0.1
		c0.2-1,0.4-2,0.5-3.1c3.5-22.1-1.3-50.5-6.8-83.4c-7.9-46.7-17.5-103.8-9.1-171.9L113.1,42.2c-7.2,68.2-29.3,121.7-47.5,165.4
		c-12.8,30.8-23.8,57.5-25.4,79.7c-0.8,10.9,0,21.3,2.2,31.1c0.8,3.4,1.7,6.7,2.8,9.9c7.2,21.1,20.3,36.5,31.8,50.2
		c4,4.7,7.7,9.1,10.9,13.4c4,5.3,7,10.8,9,16.2c0.2,0.6,0.4,1.1,0.6,1.7l0.1,0.4c0.1,0.2,0.1,0.4,0.2,0.6
		c5.9,19.2-2.1,33.7-9.4,40.9c-9.9,14-23.8,35.4-27.7,45.2c1.6,1.2,4,2.5,5.5,3.3c0.7,0.4,1.4,0.8,2.1,1.2c1.1,0.3,3.8,1,9.7,2.2
		c3.2,0.6,7,1.3,11.7,2.1C122.1,510.5,153.6,514.1,186.2,516.4z M232.6,441.8c0.1,0.1,0.2,0.2,0.3,0.3
		C232.7,442,232.7,441.9,232.6,441.8z"/>
</g>
</svg>
