<?xml version="1.0" encoding="utf-8"?>
<!DOCTYPE svg PUBLIC "-//W3C//DTD SVG 1.1//EN" "http://www.w3.org/Graphics/SVG/1.1/DTD/svg11.dtd">
<svg version="1.1" id="search" xmlns="http://www.w3.org/2000/svg" xmlns:xlink="http://www.w3.org/1999/xlink" x="0px" y="0px"
	 width="286.8px" height="290.4px" viewBox="0 0 286.8 290.4" style="enable-background:new 0 0 286.8 290.4;" xml:space="preserve"
	>
<path fill="#b8b8b8" d="M281.4,258c-10.6-10.6-21.2-21.2-31.9-31.9c-16.5-16.5-33-33-49.6-49.6
	c13.6-18.4,21.7-41.2,21.7-65.8C221.7,49.7,171.9,0,110.8,0C49.7,0,0,49.7,0,110.8c0,61.1,49.7,110.8,110.8,110.8
	c22.8,0,44-6.9,61.7-18.8c6.6,6.6,13.3,13.3,19.9,19.9c16.8,16.8,33.7,33.7,50.5,50.5c3.9,3.9,7.7,7.7,11.6,11.6
	c7,7,19.9,7.6,26.9,0C288.4,277.3,288.9,265.6,281.4,258z M38,110.8C38,70.7,70.7,38,110.8,38c40.2,0,72.8,32.7,72.8,72.8
	c0,40.2-32.7,72.8-72.8,72.8C70.7,183.7,38,151,38,110.8z"/>
</svg>
