<?xml version="1.0" encoding="utf-8"?>
<!DOCTYPE svg PUBLIC "-//W3C//DTD SVG 1.1//EN" "http://www.w3.org/Graphics/SVG/1.1/DTD/svg11.dtd">
<svg version="1.1" id="Layer_2" xmlns="http://www.w3.org/2000/svg" xmlns:xlink="http://www.w3.org/1999/xlink" x="0px" y="0px"
	 width="128px" height="104px" viewBox="0 0 128 104" style="enable-background:new 0 0 128 104;" xml:space="preserve">
<path fill="#b8b8b8" d="M112,16V0H0v89.8C0,97.6,6.4,104,14.2,104h100c7.6,0,13.7-6.1,13.7-13.7V16H112z M16.1,96.1
	c-4.5,0-8.1-3.6-8.1-8.1V8h95.9v81.4c0,0,0.1,6.6,3.1,6.6C103.8,96.1,39.2,96.1,16.1,96.1z"/>
<rect x="16" y="24" fill="#b8b8b8" width="80" height="7.9"/>
<rect x="60" y="40" fill="#b8b8b8" width="36" height="7.9"/>
<rect x="60" y="56" fill="#b8b8b8" width="36" height="7.9"/>
<rect x="60" y="72" fill="#b8b8b8" width="28" height="7.9"/>
<rect x="16" y="40" fill="#b8b8b8" width="36" height="39.9"/>
</svg>
